# xmcd
#
# Track frame offsets:
#	150
#	6427
#	15646
#	18049
#	24764
#	28964
#	47899
#	49978
#	67875
#	74071
#	81395
#	101725
#	105881
#	122367
#	123769
#	139696
#	161386
#	178993
#	193524
#	228167
#	235376
#	237324
#	243675
#
# Disc length: 3688 seconds
#
# Revision: 0
# Processed by: cddbd v1.5.2PL0 Copyright (c) Steve Scherf et al.
# Submitted via: EasyCDDAExtractor 16.0.6.1
#
DISCID=2f0e6617
DTITLE=Καβαρνός Νικόδημος π. - Ω γλυκύ μου έαρ-Ν. Καβαρνός
DYEAR=2012
DGENRE=Βυζ. Εκκλησιαστική
TTITLE0=Καβαρνός Νικόδημος π. - Εκ νυκτός [παραδ., πλ. δ']
TTITLE1=Καβαρνός Νικόδημος π. - Ιδού ο Νυμφίος έρχεται [μέλος παραδ., πλ. δ']
TTITLE2=Καλαθάς Στέλιος - Των παθών του Κυρίου
TTITLE3=Καβαρνός Νικόδημος π. - Τον νυμφώνα Σου [μέλος παραδ., γ']
TTITLE4=Καλαθάς Στέλιος - Ερχόμενος ο Κύριος
TTITLE5=Καβαρνός Νικόδημος π. - Μεθ' ημών ο Θεός [μέλος παραδ., πλ. β']
TTITLE6=Καλαθάς Στέλιος - Εν ταις λαμπρότησι των αγίων
TTITLE7=Καβαρνός Νικόδημος π. - Ιδού σοι το τάλαντον [μέλος παραδ., πλ. βαρύς]
TTITLE8=Καλαθάς Στέλιος - Κασσιανή [Η εν πολλαίς αμαρτίαις]
TTITLE9=Καλαθάς Στέλιος - Ευαγγέλιο της Στραυρώσεως
TTITLE10=Καβαρνός Νικόδημος π. - Σήμερον κρεμάται [ελ. απόδ., πλ. β']
TTITLE11=Καλαθάς Στέλιος - Τότε οι στρατιώται
TTITLE12=Καβαρνός Νικόδημος π. - Εξέδυσάν με [μέλος παραδ., πλ. β']
TTITLE13=Καλαθάς Στέλιος - Ευαγγέλιο Επιταφίου
TTITLE14=Καβαρνός Νικόδημος π. - Εγκώμ. Α' Στάσ.-Η ζωή εν τάφω [μέλος παραδ., 
TTITLE14=πλ. α', αφ. Σ.Καλαθάς]
TTITLE15=Καβαρνός Νικόδημος π. - Εγκώμ. Β' Στάσ.-Άξιον εστί [μέλος παραδ., πλ.
TTITLE15=α', αφ. Σ.Καλαθάς]
TTITLE16=Καβαρνός Νικόδημος π.-Παλιουδάκης Ηλίας - Εγκώμ. Γ' Στάσ.-Αι γενεαί π
TTITLE16=άσαι [μέλος παραδ., πλ. γ', αφ. Σ.Καλαθάς]
TTITLE17=Καβαρνός Νικόδημος π.-Παλιουδάκης Ηλίας - Ω γλυκύ μου έαρ [μέλος παρα
TTITLE17=δ., πλ. γ', αφ. Σ. Καλαθάς]
TTITLE18=Καβαρνός Νικόδημος π.-χορωδία - Σε τον αναβαλόμενον το φως [μέλος παρ
TTITLE18=αδ., πλ. α']
TTITLE19=Χορωδία π. Νικοδήμου Καβαρνού - Ευλογητάρια [μέλος παραδ., πλ. α']
TTITLE20=Καλαθάς Στέλιος - Αναστάσεως ημέρα
TTITLE21=Καβαρνός Νικόδημος π.-χορωδία - Χριστός ανέστη [μέλος παραδ., πλ. α']
TTITLE22=Καβαρνός Νικόδημος π.-χορωδία - Δοξαστικό παραλύτου [μέλος παραδ., πλ
TTITLE22=δ', Σ. Καλαθάς]
EXTD=
EXTT0=
EXTT1=
EXTT2=
EXTT3=
EXTT4=
EXTT5=
EXTT6=
EXTT7=
EXTT8=
EXTT9=
EXTT10=
EXTT11=
EXTT12=
EXTT13=
EXTT14=
EXTT15=
EXTT16=
EXTT17=
EXTT18=
EXTT19=
EXTT20=
EXTT21=
EXTT22=
PLAYORDER=
